<?xml version="1.0" encoding="UTF-8" standalone="no"?>
<!-- Created with Inkscape (http://www.inkscape.org/) -->

<svg
   width="257"
   height="155"
   viewBox="0 0 67.997915 41.010416"
   version="1.1"
   id="svg5"
   xml:space="preserve"
   xmlns="http://www.w3.org/2000/svg"
   xmlns:svg="http://www.w3.org/2000/svg"><defs
     id="defs2" /><g
     id="layer1"><rect
       style="fill:none;fill-opacity:1;stroke:none;stroke-width:4.47239;stroke-dasharray:none;stroke-opacity:1"
       id="rect5816"
       width="67.73333"
       height="67.73333"
       x="-216.78825"
       y="153.94777" /><text
       xml:space="preserve"
       style="font-style:italic;font-variant:normal;font-weight:bold;font-stretch:normal;font-size:30.1444px;font-family:'Noto Sans';-inkscape-font-specification:'Noto Sans Bold Italic';text-align:center;text-anchor:middle;fill:#ffcc00;stroke:#000000;stroke-width:6.2;stroke-dasharray:none;stroke-opacity:1"
       x="95.941467"
       y="131.11926"
       id="text402"><tspan
         id="tspan400"
         style="font-style:italic;font-variant:normal;font-weight:900;font-stretch:normal;font-family:'Noto Sans';-inkscape-font-specification:'Noto Sans Heavy Italic';stroke:#000000;stroke-width:6.2;stroke-dasharray:none;stroke-opacity:1"
         x="95.941467"
         y="131.11926">quiz</tspan></text><text
       xml:space="preserve"
       style="font-style:italic;font-variant:normal;font-weight:bold;font-stretch:normal;font-size:30.1444px;font-family:'Noto Sans';-inkscape-font-specification:'Noto Sans Bold Italic';text-align:center;text-anchor:middle;fill:#ffcc00;stroke:#000000;stroke-width:13.8747"
       x="95.941467"
       y="131.11926"
       id="text240"><tspan
         id="tspan238"
         style="font-style:italic;font-variant:normal;font-weight:900;font-stretch:normal;font-family:'Noto Sans';-inkscape-font-specification:'Noto Sans Heavy Italic';stroke:none;stroke-width:13.8747"
         x="95.941467"
         y="131.11926">quiz</tspan></text><text
       xml:space="preserve"
       style="font-style:normal;font-variant:normal;font-weight:bold;font-stretch:normal;font-size:8.46667px;font-family:'Noto Sans';-inkscape-font-specification:'Noto Sans Bold';text-align:center;text-anchor:middle;fill:#ffcc00;fill-opacity:1;stroke:none;stroke-width:2;stroke-dasharray:none;stroke-opacity:1"
       x="112.49457"
       y="143.75301"
       id="text4866"><tspan
         id="tspan4864"
         style="font-style:normal;font-variant:normal;font-weight:bold;font-stretch:normal;font-family:'Noto Sans';-inkscape-font-specification:'Noto Sans Bold';stroke:none;stroke-width:2"
         x="112.49457"
         y="143.75301">!</tspan></text><text
       xml:space="preserve"
       style="font-style:normal;font-variant:normal;font-weight:bold;font-stretch:normal;font-size:5.08308px;font-family:'Noto Sans';-inkscape-font-specification:'Noto Sans Bold';text-align:center;text-anchor:middle;fill:#ffcc00;fill-opacity:1;stroke:none;stroke-width:1.20073;stroke-dasharray:none;stroke-opacity:1"
       x="181.24553"
       y="145.37146"
       id="text4870"><tspan
         id="tspan4868"
         style="font-style:normal;font-variant:normal;font-weight:bold;font-stretch:normal;font-family:'Noto Sans';-inkscape-font-specification:'Noto Sans Bold';stroke:none;stroke-width:1.20073"
         x="181.24553"
         y="145.37146">?</tspan></text><path
       d="m 128.82753,178.37605 q 0.21101,-0.93448 0.45216,-1.80867 0.24116,-0.87418 0.48231,-1.59765 0.24116,-0.72346 0.39188,-1.14549 h -0.12058 q -0.39187,0.51246 -0.87418,0.96462 -0.48232,0.45217 -1.14549,0.69333 -0.66318,0.2713 -1.6278,0.2713 -1.0852,0 -2.11011,-0.63304 -1.02491,-0.63303 -1.68808,-1.98953 -0.66318,-1.38664 -0.66318,-3.67761 0,-1.23592 0.2713,-2.713 0.30144,-1.47708 0.87419,-2.92401 0.57274,-1.44693 1.44693,-2.6527 0.87419,-1.23592 2.07996,-1.95939 1.20578,-0.72347 2.713,-0.72347 0.96462,0 1.62779,0.24116 0.66318,0.24116 1.17564,0.75361 0.5426,0.51245 1.08519,1.3565 h 0.12058 l 0.78376,-2.04982 h 4.5518 l -5.06426,23.90451 h -5.75758 z m 0.18086,-7.20451 q 0.45217,0 0.8139,-0.2713 0.39188,-0.2713 0.69332,-0.72347 0.33159,-0.48231 0.57275,-1.0852 0.2713,-0.60288 0.42202,-1.26606 0.18086,-0.69332 0.2713,-1.3565 0.0904,-0.69332 0.0904,-1.29621 0,-0.96462 -0.30144,-1.53736 -0.2713,-0.57275 -0.87419,-0.57275 -0.48231,0 -0.93448,0.36174 -0.42202,0.33158 -0.78375,0.93447 -0.36173,0.57275 -0.66318,1.3565 -0.2713,0.75361 -0.42202,1.6278 -0.15072,0.84404 -0.15072,1.71823 0,1.02491 0.30144,1.56751 0.33159,0.5426 0.96462,0.5426 z"
       style="font-style:italic;font-weight:900;font-size:30.1444px;font-family:'Noto Sans';-inkscape-font-specification:'Noto Sans Heavy Italic';text-align:center;text-anchor:middle;fill:#ffcc00;stroke:none;stroke-width:13.8747"
       id="path4876" /><path
       d="m 144.80407,175.75349 q -1.53737,0 -2.53213,-0.63304 -0.96462,-0.66317 -1.41679,-1.74837 -0.45216,-1.0852 -0.45216,-2.35127 0,-0.84404 0.0904,-1.71823 0.12058,-0.87418 0.2713,-1.65794 l 1.86895,-8.86245 h 5.69729 l -1.89909,9.07346 q -0.0904,0.39188 -0.18087,0.99477 -0.0904,0.57274 -0.0904,1.0852 0,0.63303 0.33159,0.96462 0.33158,0.30144 0.78375,0.30144 0.51245,0 0.99476,-0.45216 0.51246,-0.45217 0.96463,-1.41679 0.45216,-0.96462 0.75361,-2.4417 l 1.71823,-8.10884 h 5.69729 l -3.5269,16.66985 h -4.5518 l 0.18087,-2.32112 h -0.12058 q -0.5426,0.93448 -1.20578,1.50722 -0.66318,0.57275 -1.50722,0.84405 -0.8139,0.2713 -1.86895,0.2713 z"
       style="font-style:italic;font-weight:900;font-size:30.1444px;font-family:'Noto Sans';-inkscape-font-specification:'Noto Sans Heavy Italic';text-align:center;text-anchor:middle;fill:#ffcc00;stroke:none;stroke-width:13.8747"
       id="path4878" /><path
       style="font-style:italic;font-weight:900;font-size:30.1444px;font-family:'Noto Sans';-inkscape-font-specification:'Noto Sans Heavy Italic';text-align:center;text-anchor:middle;fill:#ffcc00;stroke:none;stroke-width:13.8747"
       d="m 158.0676,175.45204 3.52689,-16.66985 h 5.72744 l -3.55704,16.66985 z"
       id="path4880" /><path
       d="m 166.93007,175.45204 0.63303,-3.25559 7.38538,-9.01318 h -5.12455 l 0.99477,-4.40108 h 11.93718 l -0.78375,3.55704 -7.29495,8.71173 h 5.63701 l -0.96463,4.40108 z"
       style="font-style:italic;font-weight:900;font-size:30.1444px;font-family:'Noto Sans';-inkscape-font-specification:'Noto Sans Heavy Italic';text-align:center;text-anchor:middle;fill:#ffcc00;stroke:none;stroke-width:13.8747"
       id="path4882" /><path
       d="m 165.34745,147.43364 c -2.82418,0 -5.11352,2.2895 -5.11352,5.11355 0,2.82402 2.28951,5.11353 5.11352,5.11353 2.82407,0 5.11356,-2.28951 5.11356,-5.11353 0,-2.82405 -2.28949,-5.11355 -5.11356,-5.11355 z m -1.18889,8.18168 -0.003,-0.003 -0.003,0.003 -2.38426,-2.45451 1.1981,-1.22111 1.18922,1.22451 3.57949,-3.68498 1.19214,1.22691 z"
       fill="#43a047"
       id="path5129"
       style="fill:#00ccff;fill-opacity:1;stroke-width:0.170453" /><ellipse
       style="fill:#ffcc00;fill-opacity:1;stroke:none;stroke-width:3.54931;stroke-dasharray:none;stroke-opacity:1"
       id="ellipse5131"
       cx="175.89081"
       cy="153.71153"
       rx="3.9491868"
       ry="3.9491887" /><text
       xml:space="preserve"
       style="font-style:normal;font-variant:normal;font-weight:bold;font-stretch:normal;font-size:6.57404px;font-family:'Noto Sans';-inkscape-font-specification:'Noto Sans Bold';text-align:center;text-anchor:middle;fill:#ffffff;fill-opacity:1;stroke:none;stroke-width:1.55293;stroke-dasharray:none;stroke-opacity:1"
       x="175.95984"
       y="156.0486"
       id="text5135"><tspan
         id="tspan5133"
         style="font-style:normal;font-variant:normal;font-weight:bold;font-stretch:normal;font-family:'Noto Sans';-inkscape-font-specification:'Noto Sans Bold';fill:#ffffff;stroke:none;stroke-width:1.55293"
         x="175.95984"
         y="156.0486">?</tspan></text><ellipse
       style="fill:#ff2a2a;fill-opacity:1;stroke:none;stroke-width:3.54931;stroke-dasharray:none;stroke-opacity:1"
       id="ellipse5139"
       cx="154.80414"
       cy="153.71153"
       rx="3.9491868"
       ry="3.949188" /><text
       xml:space="preserve"
       style="font-style:normal;font-variant:normal;font-weight:bold;font-stretch:normal;font-size:6.57404px;font-family:'Noto Sans';-inkscape-font-specification:'Noto Sans Bold';text-align:center;text-anchor:middle;fill:#ffffff;fill-opacity:1;stroke:none;stroke-width:1.55293;stroke-dasharray:none;stroke-opacity:1"
       x="154.8074"
       y="156.01573"
       id="text5143"><tspan
         id="tspan5141"
         style="font-style:normal;font-variant:normal;font-weight:bold;font-stretch:normal;font-family:'Noto Sans';-inkscape-font-specification:'Noto Sans Bold';fill:#ffffff;stroke:none;stroke-width:1.55293"
         x="154.8074"
         y="156.01573">!</tspan></text><g
       id="g5762"
       transform="matrix(1.0298581,0,0,1.0298581,-61.986629,-208.83709)"><path
         id="path5720"
         style="color:#000000;-inkscape-font-specification:'Noto Sans Heavy Italic';fill:#000000;stroke:none;stroke-width:4.4"
         d="m 105.94095,202.86587 c -2.78391,0 -5.22367,1.58873 -6.457491,3.90158 -1.089849,-0.97514 -2.523823,-1.57149 -4.085022,-1.57149 -3.370035,0 -6.148462,2.77843 -6.148462,6.14847 0,1.03384 0.261587,2.01179 0.721403,2.87114 h -8.008813 -8.779309 l -0.198955,0.51986 c -0.244621,-0.13575 -0.438892,-0.35211 -0.701249,-0.44751 -0.764073,-0.27785 -1.552768,-0.37466 -2.379183,-0.37466 v -5.1e-4 c -1.35681,0 -2.69513,0.34676 -3.84576,1.03714 -1.073481,0.6441 -1.996063,1.52433 -2.736267,2.56832 -0.6901,0.95416 -1.258871,1.9999 -1.702738,3.12126 -0.427511,1.08002 -0.757035,2.17853 -0.984436,3.29282 l -0.0041,0.0212 -0.0036,0.0217 c -0.200561,1.09195 -0.309025,2.12652 -0.309025,3.11144 0,1.73959 0.233427,3.27725 0.879016,4.62711 l 0.0041,0.008 0.0036,0.008 c 0.579214,1.18475 1.409401,2.21673 2.509924,2.89646 0.978627,0.60446 2.114188,0.96066 3.265434,0.96066 0.101047,0 0.192708,-0.0472 0.293005,-0.0506 l -1.611271,6.98407 h 10.304797 l 2.841687,-13.4152 c 0.04805,0.94945 0.248146,1.87835 0.609265,2.74505 0.453877,1.0893 1.228937,2.04651 2.201416,2.71508 l 0.03307,0.0233 0.03307,0.0212 c 1.096255,0.69763 2.386079,0.97669 3.712952,0.97669 0.745909,0 1.452158,-0.13751 2.144572,-0.32195 l -0.0021,0.0191 h 8.71523 2.406055 7.476545 1.38493 14.19138 l 1.92753,-8.80049 h -3.65813 l 4.61522,-5.51181 1.48828,-6.75566 h -4.17546 c 0.46012,-0.85938 0.72244,-1.83725 0.72244,-2.87114 0,-3.37004 -2.78049,-6.14847 -6.15053,-6.14847 -1.5608,0 -2.99424,0.59628 -4.08399,1.57097 -1.23451,-2.31251 -3.67542,-3.90106 -6.45903,-3.90106 z" /><path
         d="m 69.421605,236.00867 q 0.21101,-0.93448 0.45216,-1.80867 0.24116,-0.87418 0.48231,-1.59765 0.24116,-0.72346 0.39188,-1.14549 h -0.12058 q -0.39187,0.51246 -0.87418,0.96462 -0.48232,0.45217 -1.14549,0.69333 -0.66318,0.2713 -1.6278,0.2713 -1.0852,0 -2.11011,-0.63304 -1.02491,-0.63303 -1.68808,-1.98953 -0.66318,-1.38664 -0.66318,-3.67761 0,-1.23592 0.2713,-2.713 0.30144,-1.47708 0.87419,-2.92401 0.57274,-1.44693 1.44693,-2.6527 0.87419,-1.23592 2.07996,-1.95939 1.20578,-0.72347 2.713,-0.72347 0.96462,0 1.62779,0.24116 0.66318,0.24116 1.17564,0.75361 0.5426,0.51245 1.08519,1.3565 h 0.12058 l 0.78376,-2.04982 h 4.5518 l -5.06426,23.90451 h -5.75758 z m 0.18086,-7.20451 q 0.45217,0 0.8139,-0.2713 0.39188,-0.2713 0.69332,-0.72347 0.33159,-0.48231 0.57275,-1.0852 0.2713,-0.60288 0.42202,-1.26606 0.18086,-0.69332 0.2713,-1.3565 0.0904,-0.69332 0.0904,-1.29621 0,-0.96462 -0.30144,-1.53736 -0.2713,-0.57275 -0.87419,-0.57275 -0.48231,0 -0.93448,0.36174 -0.42202,0.33158 -0.78375,0.93447 -0.36173,0.57275 -0.66318,1.3565 -0.2713,0.75361 -0.42202,1.6278 -0.15072,0.84404 -0.15072,1.71823 0,1.02491 0.30144,1.56751 0.33159,0.5426 0.96462,0.5426 z"
         style="font-style:italic;font-weight:900;font-size:30.1444px;font-family:'Noto Sans';-inkscape-font-specification:'Noto Sans Heavy Italic';text-align:center;text-anchor:middle;fill:#ffcc00;stroke:none;stroke-width:13.8747"
         id="path5173" /><path
         d="m 85.398145,233.38611 q -1.53737,0 -2.53213,-0.63304 -0.96462,-0.66317 -1.41679,-1.74837 -0.45216,-1.0852 -0.45216,-2.35127 0,-0.84404 0.0904,-1.71823 0.12058,-0.87418 0.2713,-1.65794 l 1.86895,-8.86245 h 5.69729 l -1.89909,9.07346 q -0.0904,0.39188 -0.18087,0.99477 -0.0904,0.57274 -0.0904,1.0852 0,0.63303 0.33159,0.96462 0.33158,0.30144 0.78375,0.30144 0.51245,0 0.99476,-0.45216 0.51246,-0.45217 0.96463,-1.41679 0.45216,-0.96462 0.75361,-2.4417 l 1.71823,-8.10884 h 5.69729 l -3.5269,16.66985 h -4.5518 l 0.18087,-2.32112 h -0.12058 q -0.5426,0.93448 -1.20578,1.50722 -0.66318,0.57275 -1.50722,0.84405 -0.8139,0.2713 -1.86895,0.2713 z"
         style="font-style:italic;font-weight:900;font-size:30.1444px;font-family:'Noto Sans';-inkscape-font-specification:'Noto Sans Heavy Italic';text-align:center;text-anchor:middle;fill:#ffcc00;stroke:none;stroke-width:13.8747"
         id="path5175" /><path
         style="font-style:italic;font-weight:900;font-size:30.1444px;font-family:'Noto Sans';-inkscape-font-specification:'Noto Sans Heavy Italic';text-align:center;text-anchor:middle;fill:#ffcc00;stroke:none;stroke-width:13.8747"
         d="m 98.661675,233.08466 3.526895,-16.66985 h 5.72744 l -3.55704,16.66985 z"
         id="path5177" /><path
         d="m 107.52415,233.08466 0.63303,-3.25559 7.38538,-9.01318 h -5.12455 l 0.99477,-4.40108 h 11.93718 l -0.78375,3.55704 -7.29495,8.71173 h 5.63701 l -0.96463,4.40108 z"
         style="font-style:italic;font-weight:900;font-size:30.1444px;font-family:'Noto Sans';-inkscape-font-specification:'Noto Sans Heavy Italic';text-align:center;text-anchor:middle;fill:#ffcc00;stroke:none;stroke-width:13.8747"
         id="path5179" /><path
         d="m 105.94153,205.06626 c -2.82418,0 -5.11353,2.2895 -5.11353,5.11355 0,2.82402 2.28951,5.11353 5.11353,5.11353 2.82407,0 5.11356,-2.28951 5.11356,-5.11353 0,-2.82405 -2.28949,-5.11355 -5.11356,-5.11355 z m -1.1889,8.18168 -0.003,-0.003 -0.003,0.003 -2.38425,-2.45451 1.19809,-1.22111 1.18923,1.22451 3.57949,-3.68498 1.19214,1.22691 z"
         fill="#43a047"
         id="path5181"
         style="fill:#00ccff;fill-opacity:1;stroke-width:0.170453" /><path
         id="ellipse5183"
         style="fill:#ffcc00;fill-opacity:1;stroke:none;stroke-width:3.54931;stroke-dasharray:none;stroke-opacity:1"
         d="m 116.48501,207.3948 a 3.9491868,3.9491887 0 0 0 -3.94912,3.94911 3.9491868,3.9491887 0 0 0 3.94912,3.94963 3.9491868,3.9491887 0 0 0 3.94911,-3.94963 3.9491868,3.9491887 0 0 0 -3.94911,-3.94911 z m 0.0393,1.52704 c 0.4558,0 0.80852,0.10952 1.05833,0.32866 0.25419,0.21913 0.38137,0.4971 0.38137,0.83457 0,0.17969 -0.0283,0.33568 -0.0853,0.46716 -0.057,0.13148 -0.14236,0.25398 -0.25631,0.36793 -0.11395,0.10957 -0.25644,0.22792 -0.42737,0.35502 -0.1271,0.092 -0.22598,0.17094 -0.2961,0.23668 -0.0701,0.0657 -0.1184,0.12933 -0.1447,0.19068 -0.0219,0.0614 -0.0326,0.13793 -0.0326,0.22996 v 0.19069 h -0.84801 v -0.23668 c 0,-0.14463 0.0195,-0.27414 0.0589,-0.38809 0.0394,-0.11395 0.10303,-0.22114 0.19069,-0.32194 0.092,-0.1008 0.21272,-0.20384 0.36173,-0.30903 0.13148,-0.0964 0.23634,-0.18181 0.31523,-0.25631 0.0833,-0.0745 0.1427,-0.14926 0.17777,-0.22376 0.0394,-0.0745 0.0589,-0.15756 0.0589,-0.2496 0,-0.14024 -0.0524,-0.24562 -0.15762,-0.31574 -0.1008,-0.0745 -0.24329,-0.11162 -0.42736,-0.11162 -0.18408,0 -0.36602,0.0288 -0.54571,0.0858 -0.17969,0.057 -0.36344,0.13354 -0.5519,0.22996 l -0.34882,-0.70332 c 0.21476,-0.11833 0.44731,-0.21488 0.69712,-0.28938 0.24981,-0.0745 0.52363,-0.11162 0.82165,-0.11162 z m -0.19069,3.75377 c 0.15339,0 0.28472,0.0413 0.39429,0.12454 0.10957,0.0789 0.16485,0.21904 0.16485,0.42065 0,0.19284 -0.0553,0.33351 -0.16485,0.42116 -0.10957,0.0833 -0.2409,0.12454 -0.39429,0.12454 -0.15778,0 -0.29144,-0.0413 -0.40101,-0.12454 -0.10957,-0.0876 -0.16433,-0.22832 -0.16433,-0.42116 0,-0.20161 0.0548,-0.34176 0.16433,-0.42065 0.10957,-0.0833 0.24323,-0.12454 0.40101,-0.12454 z" /><path
         id="ellipse5189"
         style="fill:#ff2a2a;fill-opacity:1;stroke:none;stroke-width:3.54931;stroke-dasharray:none;stroke-opacity:1"
         d="m 95.398437,207.3948 a 3.9491868,3.949188 0 0 0 -3.94963,3.94911 3.9491868,3.949188 0 0 0 3.94963,3.94963 3.9491868,3.949188 0 0 0 3.949113,-3.94963 3.9491868,3.949188 0 0 0 -3.949113,-3.94911 z m -0.54932,1.55959 h 1.111043 l -0.164331,3.13573 h -0.782381 z m 0.552421,3.68815 c 0.153394,0 0.284724,0.0418 0.394291,0.12506 0.109567,0.0789 0.164331,0.21904 0.164331,0.42064 0,0.19284 -0.05476,0.33299 -0.164331,0.42065 -0.109567,0.0833 -0.240897,0.12505 -0.394291,0.12505 -0.157777,0 -0.291442,-0.0418 -0.401009,-0.12505 -0.109568,-0.0877 -0.164331,-0.22781 -0.164331,-0.42065 0,-0.2016 0.05476,-0.34176 0.164331,-0.42064 0.109567,-0.0833 0.243232,-0.12506 0.401009,-0.12506 z" /></g><g
       id="g5952"
       transform="matrix(2.0000001,0,0,2.0000001,-88.490961,-320.8245)"><rect
         style="fill:none;fill-opacity:1;stroke:none;stroke-width:5.14423;stroke-dasharray:none;stroke-opacity:1"
         id="rect5940"
         width="67.73333"
         height="67.73333"
         x="88.490952"
         y="320.82446" /><g
         id="g5886"
         transform="matrix(0.8943388,0,0,0.8943388,39.002797,155.52804)"><path
           id="path5870"
           style="color:#000000;-inkscape-font-specification:'Noto Sans Heavy Italic';fill:#000000;stroke:none;stroke-width:4.4"
           d="m 105.94095,202.86587 c -2.78391,0 -5.22367,1.58873 -6.457491,3.90158 -1.089849,-0.97514 -2.523823,-1.57149 -4.085022,-1.57149 -3.370035,0 -6.148462,2.77843 -6.148462,6.14847 0,1.03384 0.261587,2.01179 0.721403,2.87114 h -8.008813 -8.779309 l -0.198955,0.51986 c -0.244621,-0.13575 -0.438892,-0.35211 -0.701249,-0.44751 -0.764073,-0.27785 -1.552768,-0.37466 -2.379183,-0.37466 v -5.1e-4 c -1.35681,0 -2.69513,0.34676 -3.84576,1.03714 -1.073481,0.6441 -1.996063,1.52433 -2.736267,2.56832 -0.6901,0.95416 -1.258871,1.9999 -1.702738,3.12126 -0.427511,1.08002 -0.757035,2.17853 -0.984436,3.29282 l -0.0041,0.0212 -0.0036,0.0217 c -0.200561,1.09195 -0.309025,2.12652 -0.309025,3.11144 0,1.73959 0.233427,3.27725 0.879016,4.62711 l 0.0041,0.008 0.0036,0.008 c 0.579214,1.18475 1.409401,2.21673 2.509924,2.89646 0.978627,0.60446 2.114188,0.96066 3.265434,0.96066 0.101047,0 0.192708,-0.0472 0.293005,-0.0506 l -1.611271,6.98407 h 10.304797 l 2.841687,-13.4152 c 0.04805,0.94945 0.248146,1.87835 0.609265,2.74505 0.453877,1.0893 1.228937,2.04651 2.201416,2.71508 l 0.03307,0.0233 0.03307,0.0212 c 1.096255,0.69763 2.386079,0.97669 3.712952,0.97669 0.745909,0 1.452158,-0.13751 2.144572,-0.32195 l -0.0021,0.0191 h 8.71523 2.406055 7.476545 1.38493 14.19138 l 1.92753,-8.80049 h -3.65813 l 4.61522,-5.51181 1.48828,-6.75566 h -4.17546 c 0.46012,-0.85938 0.72244,-1.83725 0.72244,-2.87114 0,-3.37004 -2.78049,-6.14847 -6.15053,-6.14847 -1.5608,0 -2.99424,0.59628 -4.08399,1.57097 -1.23451,-2.31251 -3.67542,-3.90106 -6.45903,-3.90106 z" /><path
           d="m 69.421605,236.00867 q 0.21101,-0.93448 0.45216,-1.80867 0.24116,-0.87418 0.48231,-1.59765 0.24116,-0.72346 0.39188,-1.14549 h -0.12058 q -0.39187,0.51246 -0.87418,0.96462 -0.48232,0.45217 -1.14549,0.69333 -0.66318,0.2713 -1.6278,0.2713 -1.0852,0 -2.11011,-0.63304 -1.02491,-0.63303 -1.68808,-1.98953 -0.66318,-1.38664 -0.66318,-3.67761 0,-1.23592 0.2713,-2.713 0.30144,-1.47708 0.87419,-2.92401 0.57274,-1.44693 1.44693,-2.6527 0.87419,-1.23592 2.07996,-1.95939 1.20578,-0.72347 2.713,-0.72347 0.96462,0 1.62779,0.24116 0.66318,0.24116 1.17564,0.75361 0.5426,0.51245 1.08519,1.3565 h 0.12058 l 0.78376,-2.04982 h 4.5518 l -5.06426,23.90451 h -5.75758 z m 0.18086,-7.20451 q 0.45217,0 0.8139,-0.2713 0.39188,-0.2713 0.69332,-0.72347 0.33159,-0.48231 0.57275,-1.0852 0.2713,-0.60288 0.42202,-1.26606 0.18086,-0.69332 0.2713,-1.3565 0.0904,-0.69332 0.0904,-1.29621 0,-0.96462 -0.30144,-1.53736 -0.2713,-0.57275 -0.87419,-0.57275 -0.48231,0 -0.93448,0.36174 -0.42202,0.33158 -0.78375,0.93447 -0.36173,0.57275 -0.66318,1.3565 -0.2713,0.75361 -0.42202,1.6278 -0.15072,0.84404 -0.15072,1.71823 0,1.02491 0.30144,1.56751 0.33159,0.5426 0.96462,0.5426 z"
           style="font-style:italic;font-weight:900;font-size:30.1444px;font-family:'Noto Sans';-inkscape-font-specification:'Noto Sans Heavy Italic';text-align:center;text-anchor:middle;fill:#ffcc00;stroke:none;stroke-width:13.8747"
           id="path5872" /><path
           d="m 85.398145,233.38611 q -1.53737,0 -2.53213,-0.63304 -0.96462,-0.66317 -1.41679,-1.74837 -0.45216,-1.0852 -0.45216,-2.35127 0,-0.84404 0.0904,-1.71823 0.12058,-0.87418 0.2713,-1.65794 l 1.86895,-8.86245 h 5.69729 l -1.89909,9.07346 q -0.0904,0.39188 -0.18087,0.99477 -0.0904,0.57274 -0.0904,1.0852 0,0.63303 0.33159,0.96462 0.33158,0.30144 0.78375,0.30144 0.51245,0 0.99476,-0.45216 0.51246,-0.45217 0.96463,-1.41679 0.45216,-0.96462 0.75361,-2.4417 l 1.71823,-8.10884 h 5.69729 l -3.5269,16.66985 h -4.5518 l 0.18087,-2.32112 h -0.12058 q -0.5426,0.93448 -1.20578,1.50722 -0.66318,0.57275 -1.50722,0.84405 -0.8139,0.2713 -1.86895,0.2713 z"
           style="font-style:italic;font-weight:900;font-size:30.1444px;font-family:'Noto Sans';-inkscape-font-specification:'Noto Sans Heavy Italic';text-align:center;text-anchor:middle;fill:#ffcc00;stroke:none;stroke-width:13.8747"
           id="path5874" /><path
           style="font-style:italic;font-weight:900;font-size:30.1444px;font-family:'Noto Sans';-inkscape-font-specification:'Noto Sans Heavy Italic';text-align:center;text-anchor:middle;fill:#ffcc00;stroke:none;stroke-width:13.8747"
           d="m 98.661675,233.08466 3.526895,-16.66985 h 5.72744 l -3.55704,16.66985 z"
           id="path5876" /><path
           d="m 107.52415,233.08466 0.63303,-3.25559 7.38538,-9.01318 h -5.12455 l 0.99477,-4.40108 h 11.93718 l -0.78375,3.55704 -7.29495,8.71173 h 5.63701 l -0.96463,4.40108 z"
           style="font-style:italic;font-weight:900;font-size:30.1444px;font-family:'Noto Sans';-inkscape-font-specification:'Noto Sans Heavy Italic';text-align:center;text-anchor:middle;fill:#ffcc00;stroke:none;stroke-width:13.8747"
           id="path5878" /><path
           d="m 105.94153,205.06626 c -2.82418,0 -5.11353,2.2895 -5.11353,5.11355 0,2.82402 2.28951,5.11353 5.11353,5.11353 2.82407,0 5.11356,-2.28951 5.11356,-5.11353 0,-2.82405 -2.28949,-5.11355 -5.11356,-5.11355 z m -1.1889,8.18168 -0.003,-0.003 -0.003,0.003 -2.38425,-2.45451 1.19809,-1.22111 1.18923,1.22451 3.57949,-3.68498 1.19214,1.22691 z"
           fill="#43a047"
           id="path5880"
           style="fill:#00ccff;fill-opacity:1;stroke-width:0.170453" /><path
           id="path5882"
           style="fill:#ffcc00;fill-opacity:1;stroke:none;stroke-width:3.54931;stroke-dasharray:none;stroke-opacity:1"
           d="m 116.48501,207.3948 a 3.9491868,3.9491887 0 0 0 -3.94912,3.94911 3.9491868,3.9491887 0 0 0 3.94912,3.94963 3.9491868,3.9491887 0 0 0 3.94911,-3.94963 3.9491868,3.9491887 0 0 0 -3.94911,-3.94911 z m 0.0393,1.52704 c 0.4558,0 0.80852,0.10952 1.05833,0.32866 0.25419,0.21913 0.38137,0.4971 0.38137,0.83457 0,0.17969 -0.0283,0.33568 -0.0853,0.46716 -0.057,0.13148 -0.14236,0.25398 -0.25631,0.36793 -0.11395,0.10957 -0.25644,0.22792 -0.42737,0.35502 -0.1271,0.092 -0.22598,0.17094 -0.2961,0.23668 -0.0701,0.0657 -0.1184,0.12933 -0.1447,0.19068 -0.0219,0.0614 -0.0326,0.13793 -0.0326,0.22996 v 0.19069 h -0.84801 v -0.23668 c 0,-0.14463 0.0195,-0.27414 0.0589,-0.38809 0.0394,-0.11395 0.10303,-0.22114 0.19069,-0.32194 0.092,-0.1008 0.21272,-0.20384 0.36173,-0.30903 0.13148,-0.0964 0.23634,-0.18181 0.31523,-0.25631 0.0833,-0.0745 0.1427,-0.14926 0.17777,-0.22376 0.0394,-0.0745 0.0589,-0.15756 0.0589,-0.2496 0,-0.14024 -0.0524,-0.24562 -0.15762,-0.31574 -0.1008,-0.0745 -0.24329,-0.11162 -0.42736,-0.11162 -0.18408,0 -0.36602,0.0288 -0.54571,0.0858 -0.17969,0.057 -0.36344,0.13354 -0.5519,0.22996 l -0.34882,-0.70332 c 0.21476,-0.11833 0.44731,-0.21488 0.69712,-0.28938 0.24981,-0.0745 0.52363,-0.11162 0.82165,-0.11162 z m -0.19069,3.75377 c 0.15339,0 0.28472,0.0413 0.39429,0.12454 0.10957,0.0789 0.16485,0.21904 0.16485,0.42065 0,0.19284 -0.0553,0.33351 -0.16485,0.42116 -0.10957,0.0833 -0.2409,0.12454 -0.39429,0.12454 -0.15778,0 -0.29144,-0.0413 -0.40101,-0.12454 -0.10957,-0.0876 -0.16433,-0.22832 -0.16433,-0.42116 0,-0.20161 0.0548,-0.34176 0.16433,-0.42065 0.10957,-0.0833 0.24323,-0.12454 0.40101,-0.12454 z" /><path
           id="path5884"
           style="fill:#ff2a2a;fill-opacity:1;stroke:none;stroke-width:3.54931;stroke-dasharray:none;stroke-opacity:1"
           d="m 95.398437,207.3948 a 3.9491868,3.949188 0 0 0 -3.94963,3.94911 3.9491868,3.949188 0 0 0 3.94963,3.94963 3.9491868,3.949188 0 0 0 3.949113,-3.94963 3.9491868,3.949188 0 0 0 -3.949113,-3.94911 z m -0.54932,1.55959 h 1.111043 l -0.164331,3.13573 h -0.782381 z m 0.552421,3.68815 c 0.153394,0 0.284724,0.0418 0.394291,0.12506 0.109567,0.0789 0.164331,0.21904 0.164331,0.42064 0,0.19284 -0.05476,0.33299 -0.164331,0.42065 -0.109567,0.0833 -0.240897,0.12505 -0.394291,0.12505 -0.157777,0 -0.291442,-0.0418 -0.401009,-0.12505 -0.109568,-0.0877 -0.164331,-0.22781 -0.164331,-0.42065 0,-0.2016 0.05476,-0.34176 0.164331,-0.42064 0.109567,-0.0833 0.243232,-0.12506 0.401009,-0.12506 z" /></g></g></g></svg>
